<svg width="24" height="24" viewBox="0 0 24 24" fill="none" xmlns="http://www.w3.org/2000/svg">
<path fill-rule="evenodd" clip-rule="evenodd" d="M12.058 19.4663C11.7414 19.8804 11.2113 20.1003 10.6726 20.0029L5.2017 19.0129C4.69093 18.9205 4.24476 18.6125 3.97728 18.1677C3.70984 17.7228 3.64702 17.1843 3.8049 16.6899L4.07747 15.8362C4.23535 15.3418 4.59864 14.9393 5.07441 14.7318C5.55022 14.5243 6.09229 14.5319 6.56213 14.7526L8.56349 15.6928V14.5144C7.43013 14.5057 6.51399 13.5843 6.51399 12.4489V11.12C6.51399 9.97924 7.43879 9.05444 8.57959 9.05444H15.5364C16.6772 9.05444 17.602 9.97924 17.602 11.12V12.4489C17.602 13.5843 16.6859 14.5057 15.5525 14.5144V15.6928L17.5539 14.7526C18.0237 14.5319 18.5658 14.5243 19.0416 14.7318C19.5173 14.9393 19.8806 15.3418 20.0385 15.8362L20.3111 16.6899C20.469 17.1843 20.4062 17.7228 20.1387 18.1677C19.8712 18.6125 19.425 18.9205 18.9143 19.0129L13.4434 20.0029C12.9047 20.1003 12.3745 19.8804 12.058 19.4663ZM11.2211 17.6692L6.28199 15.3489C5.98382 15.2088 5.63977 15.204 5.3378 15.3357C5.03587 15.4674 4.80528 15.7228 4.70509 16.0367L4.43248 16.8903C4.33229 17.2041 4.37215 17.5459 4.54189 17.8282C4.71168 18.1105 4.99483 18.306 5.31897 18.3647L10.7899 19.3545C11.1681 19.423 11.5384 19.2003 11.6553 18.8342L11.6866 18.7363C11.8214 18.3142 11.6222 17.8575 11.2211 17.6692ZM9.22232 16.0023L11.5013 17.0728C11.7255 17.1782 11.9136 17.3315 12.058 17.5155C12.2024 17.3315 12.3905 17.1782 12.6147 17.0728L14.8937 16.0023V14.5144H9.22232V16.0023ZM12.3874 13.8556H15.5364C16.3133 13.8556 16.9432 13.2258 16.9432 12.4489V11.12C16.9432 10.3431 16.3133 9.71326 15.5364 9.71326H8.57959C7.80264 9.71326 7.17281 10.3431 7.17281 11.12V12.4489C7.17281 13.2258 7.80264 13.8556 8.57959 13.8556H11.7286V12.1138H9.51554C9.33375 12.1138 9.18613 11.9663 9.18613 11.7844C9.18613 11.6026 9.33375 11.455 9.51554 11.455H14.6004C14.7822 11.455 14.9298 11.6026 14.9298 11.7844C14.9298 11.9663 14.7822 12.1138 14.6004 12.1138H12.3874V13.8556ZM17.834 15.3489L12.8948 17.6692C12.4938 17.8575 12.2946 18.3142 12.4294 18.7363L12.4607 18.8342C12.5776 19.2003 12.9479 19.423 13.3261 19.3545L18.797 18.3647C19.1211 18.306 19.4043 18.1105 19.5741 17.8282C19.7438 17.5459 19.7837 17.2041 19.6835 16.8903L19.4109 16.0367C19.3107 15.7228 19.0802 15.4674 18.7782 15.3357C18.4762 15.204 18.1322 15.2088 17.834 15.3489ZM21.0361 1.34611C21.0361 1.16432 21.1837 1.0167 21.3655 1.0167C21.5474 1.0167 21.6949 1.16432 21.6949 1.34611V1.87378C21.6949 2.05562 21.5474 2.20319 21.3655 2.20319C21.1837 2.20319 21.0361 2.05562 21.0361 1.87378V1.34611ZM22.5528 2.20399C22.7346 2.20399 22.8822 2.35162 22.8822 2.53341C22.8822 2.71519 22.7346 2.86282 22.5528 2.86282H22.0251C21.8433 2.86282 21.6957 2.71519 21.6957 2.53341C21.6957 2.35162 21.8433 2.20399 22.0251 2.20399H22.5528ZM21.6949 3.7207C21.6949 3.90249 21.5474 4.05011 21.3655 4.05011C21.1837 4.05011 21.0361 3.90249 21.0361 3.7207V3.19303C21.0361 3.01119 21.1837 2.86362 21.3655 2.86362C21.5474 2.86362 21.6949 3.01119 21.6949 3.19303V3.7207ZM20.1782 2.86282C19.9964 2.86282 19.8488 2.71519 19.8488 2.53341C19.8488 2.35162 19.9964 2.20399 20.1782 2.20399H20.7059C20.8877 2.20399 21.0354 2.35162 21.0354 2.53341C21.0354 2.71519 20.8877 2.86282 20.7059 2.86282H20.1782ZM2.87582 7.82964C2.87582 7.64781 3.02345 7.50023 3.20523 7.50023C3.38707 7.50023 3.53465 7.64781 3.53465 7.82964V8.35731C3.53465 8.5391 3.38707 8.68672 3.20523 8.68672C3.02345 8.68672 2.87582 8.5391 2.87582 8.35731V7.82964ZM4.39253 8.68752C4.57436 8.68752 4.72194 8.8351 4.72194 9.01694C4.72194 9.19872 4.57436 9.34635 4.39253 9.34635H3.86486C3.68307 9.34635 3.53544 9.19872 3.53544 9.01694C3.53544 8.8351 3.68307 8.68752 3.86486 8.68752H4.39253ZM3.53465 10.2042C3.53465 10.386 3.38707 10.5336 3.20523 10.5336C3.02345 10.5336 2.87582 10.386 2.87582 10.2042V9.67651C2.87582 9.49472 3.02345 9.3471 3.20523 9.3471C3.38707 9.3471 3.53465 9.49472 3.53465 9.67651V10.2042ZM2.01794 9.34635C1.83615 9.34635 1.68853 9.19872 1.68853 9.01694C1.68853 8.8351 1.83615 8.68752 2.01794 8.68752H2.54566C2.72745 8.68752 2.87507 8.8351 2.87507 9.01694C2.87507 9.19872 2.72745 9.34635 2.54566 9.34635H2.01794ZM6.97488 0.705877C6.97488 0.524088 7.12246 0.376465 7.30429 0.376465C7.48608 0.376465 7.6337 0.524088 7.6337 0.705877V1.23355C7.6337 1.41538 7.48608 1.56296 7.30429 1.56296C7.12246 1.56296 6.97488 1.41538 6.97488 1.23355V0.705877ZM8.49159 1.56376C8.67337 1.56376 8.821 1.71138 8.821 1.89317C8.821 2.07496 8.67337 2.22258 8.49159 2.22258H7.96387C7.78208 2.22258 7.63446 2.07496 7.63446 1.89317C7.63446 1.71138 7.78208 1.56376 7.96387 1.56376H8.49159ZM7.6337 3.08046C7.6337 3.26225 7.48608 3.40988 7.30429 3.40988C7.12246 3.40988 6.97488 3.26225 6.97488 3.08046V2.55279C6.97488 2.37096 7.12246 2.22338 7.30429 2.22338C7.48608 2.22338 7.6337 2.37096 7.6337 2.55279V3.08046ZM6.117 2.22258C5.93516 2.22258 5.78759 2.07496 5.78759 1.89317C5.78759 1.71138 5.93516 1.56376 6.117 1.56376H6.64467C6.8265 1.56376 6.97408 1.71138 6.97408 1.89317C6.97408 2.07496 6.8265 2.22258 6.64467 2.22258H6.117ZM2.30509 2.79896C2.30509 2.61712 2.45267 2.46955 2.6345 2.46955C2.81629 2.46955 2.96392 2.61712 2.96392 2.79896V3.32663C2.96392 3.50842 2.81629 3.65604 2.6345 3.65604C2.45267 3.65604 2.30509 3.50842 2.30509 3.32663V2.79896ZM3.8218 3.65684C4.00359 3.65684 4.15121 3.80442 4.15121 3.98625C4.15121 4.16804 4.00359 4.31567 3.8218 4.31567H3.29408C3.11229 4.31567 2.96467 4.16804 2.96467 3.98625C2.96467 3.80442 3.11229 3.65684 3.29408 3.65684H3.8218ZM2.96392 5.17355C2.96392 5.35534 2.81629 5.50296 2.6345 5.50296C2.45267 5.50296 2.30509 5.35534 2.30509 5.17355V4.64583C2.30509 4.46404 2.45267 4.31642 2.6345 4.31642C2.81629 4.31642 2.96392 4.46404 2.96392 4.64583V5.17355ZM1.44721 4.31567C1.26537 4.31567 1.1178 4.16804 1.1178 3.98625C1.1178 3.80442 1.26537 3.65684 1.44721 3.65684H1.97488C2.15672 3.65684 2.30429 3.80442 2.30429 3.98625C2.30429 4.16804 2.15672 4.31567 1.97488 4.31567H1.44721ZM17.987 4.26776C17.987 4.08592 18.1346 3.93835 18.3164 3.93835C18.4982 3.93835 18.6458 4.08592 18.6458 4.26776V4.79543C18.6458 4.97726 18.4982 5.12484 18.3164 5.12484C18.1346 5.12484 17.987 4.97726 17.987 4.79543V4.26776ZM19.5037 5.12564C19.6855 5.12564 19.8331 5.27322 19.8331 5.45505C19.8331 5.63684 19.6855 5.78446 19.5037 5.78446H18.976C18.7942 5.78446 18.6466 5.63684 18.6466 5.45505C18.6466 5.27322 18.7942 5.12564 18.976 5.12564H19.5037ZM18.6458 6.64235C18.6458 6.82414 18.4982 6.97176 18.3164 6.97176C18.1346 6.97176 17.987 6.82414 17.987 6.64235V6.11463C17.987 5.93284 18.1346 5.78522 18.3164 5.78522C18.4982 5.78522 18.6458 5.93284 18.6458 6.11463V6.64235ZM17.1291 5.78446C16.9473 5.78446 16.7997 5.63684 16.7997 5.45505C16.7997 5.27322 16.9473 5.12564 17.1291 5.12564H17.6568C17.8386 5.12564 17.9862 5.27322 17.9862 5.45505C17.9862 5.63684 17.8386 5.78446 17.6568 5.78446H17.1291ZM20.3616 9.01694C20.3616 8.8351 20.5092 8.68752 20.691 8.68752C20.8728 8.68752 21.0204 8.8351 21.0204 9.01694V9.54461C21.0204 9.72639 20.8728 9.87402 20.691 9.87402C20.5092 9.87402 20.3616 9.72639 20.3616 9.54461V9.01694ZM21.8783 9.87482C22.0601 9.87482 22.2077 10.0224 22.2077 10.2042C22.2077 10.386 22.0601 10.5336 21.8783 10.5336H21.3506C21.1688 10.5336 21.0212 10.386 21.0212 10.2042C21.0212 10.0224 21.1688 9.87482 21.3506 9.87482H21.8783ZM21.0204 11.3915C21.0204 11.5733 20.8728 11.7209 20.691 11.7209C20.5092 11.7209 20.3616 11.5733 20.3616 11.3915V10.8638C20.3616 10.682 20.5092 10.5344 20.691 10.5344C20.8728 10.5344 21.0204 10.682 21.0204 10.8638V11.3915ZM19.5037 10.5336C19.3219 10.5336 19.1743 10.386 19.1743 10.2042C19.1743 10.0224 19.3219 9.87482 19.5037 9.87482H20.0314C20.2132 9.87482 20.3608 10.0224 20.3608 10.2042C20.3608 10.386 20.2132 10.5336 20.0314 10.5336H19.5037ZM12.058 2.35294C13.8033 2.35294 15.2203 3.77049 15.2203 5.51656C15.2203 7.26268 13.8033 8.68018 12.058 8.68018C10.3127 8.68018 8.89563 7.26268 8.89563 5.51656C8.89563 3.77049 10.3127 2.35294 12.058 2.35294ZM12.058 3.01176C10.6762 3.01176 9.55446 4.13416 9.55446 5.51656C9.55446 6.89896 10.6762 8.02136 12.058 8.02136C13.4398 8.02136 14.5615 6.89896 14.5615 5.51656C14.5615 4.13416 13.4398 3.01176 12.058 3.01176ZM2.17361 20.9254C1.99182 20.9254 1.8442 20.7778 1.8442 20.596C1.8442 20.4142 1.99182 20.2666 2.17361 20.2666H21.9424C22.1242 20.2666 22.2718 20.4142 22.2718 20.596C22.2718 20.7778 22.1242 20.9254 21.9424 20.9254H2.17361ZM10.7701 22.2745C10.5883 22.2745 10.4407 22.1269 10.4407 21.9451C10.4407 21.7632 10.5883 21.6157 10.7701 21.6157H20.3691C20.551 21.6157 20.6986 21.7632 20.6986 21.9451C20.6986 22.1269 20.551 22.2745 20.3691 22.2745H10.7701ZM3.55592 23.6235C3.37413 23.6235 3.2265 23.4759 3.2265 23.2941C3.2265 23.1123 3.37413 22.9647 3.55592 22.9647H13.1549C13.3367 22.9647 13.4843 23.1123 13.4843 23.2941C13.4843 23.4759 13.3367 23.6235 13.1549 23.6235H3.55592Z" fill="#202020"/>
</svg>
