<svg width="24" height="24" viewBox="0 0 24 24" fill="none" xmlns="http://www.w3.org/2000/svg">
<circle cx="12" cy="12" r="12" fill="#ED7D31"/>
<g clip-path="url(#clip0_3869_5383)">
<path fill-rule="evenodd" clip-rule="evenodd" d="M12.0435 17.5997C11.8061 17.9103 11.4085 18.0752 11.0045 18.0021L6.90131 17.2597C6.51823 17.1904 6.1836 16.9594 5.98299 16.6257C5.78241 16.2921 5.7353 15.8882 5.85371 15.5174L6.05813 14.8772C6.17654 14.5063 6.44901 14.2045 6.80584 14.0489C7.1627 13.8932 7.56925 13.8989 7.92163 14.0645L9.42265 14.7696V13.8858C8.57263 13.8793 7.88552 13.1882 7.88552 12.3367V11.34C7.88552 10.4844 8.57912 9.79083 9.43472 9.79083H14.6524C15.5079 9.79083 16.2015 10.4844 16.2015 11.34V12.3367C16.2015 13.1882 15.5145 13.8793 14.6644 13.8858V14.7696L16.1654 14.0645C16.5178 13.8989 16.9244 13.8932 17.2812 14.0489C17.638 14.2045 17.9105 14.5063 18.0289 14.8772L18.2333 15.5174C18.3518 15.8882 18.3047 16.2921 18.104 16.6257C17.9034 16.9594 17.5688 17.1904 17.1858 17.2597L13.0826 18.0021C12.6785 18.0752 12.2809 17.9103 12.0435 17.5997ZM11.4159 16.2519L7.71152 14.5117C7.4879 14.4066 7.22986 14.403 7.00338 14.5018C6.77693 14.6006 6.60399 14.7921 6.52885 15.0275L6.32439 15.6677C6.24925 15.9031 6.27914 16.1594 6.40645 16.3711C6.53379 16.5829 6.74616 16.7295 6.98926 16.7735L11.0924 17.5159C11.3761 17.5673 11.6538 17.4002 11.7415 17.1257L11.7649 17.0522C11.8661 16.7357 11.7167 16.3932 11.4159 16.2519ZM9.91677 15.0017L11.626 15.8046C11.7942 15.8837 11.9352 15.9986 12.0435 16.1366C12.1518 15.9986 12.2929 15.8837 12.4611 15.8046L14.1703 15.0017V13.8858H9.91677V15.0017ZM12.2906 13.3917H14.6524C15.235 13.3917 15.7074 12.9193 15.7074 12.3367V11.34C15.7074 10.7573 15.235 10.2849 14.6524 10.2849H9.43472C8.85201 10.2849 8.37964 10.7573 8.37964 11.34V12.3367C8.37964 12.9193 8.85201 13.3917 9.43472 13.3917H11.7965V12.0854H10.1367C10.0003 12.0854 9.88963 11.9747 9.88963 11.8383C9.88963 11.702 10.0003 11.5913 10.1367 11.5913H13.9504C14.0867 11.5913 14.1974 11.702 14.1974 11.8383C14.1974 11.9747 14.0867 12.0854 13.9504 12.0854H12.2906V13.3917ZM16.3755 14.5117L12.6712 16.2519C12.3704 16.3932 12.221 16.7357 12.3221 17.0522L12.3455 17.1257C12.4332 17.4002 12.711 17.5673 12.9946 17.5159L17.0978 16.7735C17.3409 16.7295 17.5533 16.5829 17.6806 16.3711C17.8079 16.1594 17.8378 15.9031 17.7626 15.6677L17.5582 15.0275C17.4831 14.7921 17.3101 14.6006 17.0837 14.5018C16.8572 14.403 16.5991 14.4066 16.3755 14.5117ZM18.7771 4.00958C18.7771 3.87324 18.8878 3.76253 19.0242 3.76253C19.1605 3.76253 19.2712 3.87324 19.2712 4.00958V4.40534C19.2712 4.54171 19.1605 4.6524 19.0242 4.6524C18.8878 4.6524 18.7771 4.54171 18.7771 4.40534V4.00958ZM19.9146 4.653C20.051 4.653 20.1617 4.76371 20.1617 4.90005C20.1617 5.0364 20.051 5.14711 19.9146 5.14711H19.5189C19.3825 5.14711 19.2718 5.0364 19.2718 4.90005C19.2718 4.76371 19.3825 4.653 19.5189 4.653H19.9146ZM19.2712 5.79052C19.2712 5.92687 19.1605 6.03758 19.0242 6.03758C18.8878 6.03758 18.7771 5.92687 18.7771 5.79052V5.39477C18.7771 5.2584 18.8878 5.14771 19.0242 5.14771C19.1605 5.14771 19.2712 5.2584 19.2712 5.39477V5.79052ZM18.1337 5.14711C17.9974 5.14711 17.8866 5.0364 17.8866 4.90005C17.8866 4.76371 17.9974 4.653 18.1337 4.653H18.5295C18.6658 4.653 18.7765 4.76371 18.7765 4.90005C18.7765 5.0364 18.6658 5.14711 18.5295 5.14711H18.1337ZM5.1569 8.87223C5.1569 8.73585 5.26761 8.62517 5.40396 8.62517C5.54033 8.62517 5.65101 8.73585 5.65101 8.87223V9.26798C5.65101 9.40433 5.54033 9.51504 5.40396 9.51504C5.26761 9.51504 5.1569 9.40433 5.1569 9.26798V8.87223ZM6.29443 9.51564C6.4308 9.51564 6.54149 9.62632 6.54149 9.7627C6.54149 9.89904 6.4308 10.0098 6.29443 10.0098H5.89867C5.76233 10.0098 5.65161 9.89904 5.65161 9.7627C5.65161 9.62632 5.76233 9.51564 5.89867 9.51564H6.29443ZM5.65101 10.6532C5.65101 10.7895 5.54033 10.9002 5.40396 10.9002C5.26761 10.9002 5.1569 10.7895 5.1569 10.6532V10.2574C5.1569 10.121 5.26761 10.0103 5.40396 10.0103C5.54033 10.0103 5.65101 10.121 5.65101 10.2574V10.6532ZM4.51348 10.0098C4.37714 10.0098 4.26643 9.89904 4.26643 9.7627C4.26643 9.62632 4.37714 9.51564 4.51348 9.51564H4.90927C5.04561 9.51564 5.15633 9.62632 5.15633 9.7627C5.15633 9.89904 5.04561 10.0098 4.90927 10.0098H4.51348ZM8.23119 3.52941C8.23119 3.39307 8.34187 3.28235 8.47825 3.28235C8.61459 3.28235 8.72531 3.39307 8.72531 3.52941V3.92516C8.72531 4.06154 8.61459 4.17222 8.47825 4.17222C8.34187 4.17222 8.23119 4.06154 8.23119 3.92516V3.52941ZM9.36872 4.17282C9.50506 4.17282 9.61578 4.28354 9.61578 4.41988C9.61578 4.55622 9.50506 4.66694 9.36872 4.66694H8.97293C8.83659 4.66694 8.72587 4.55622 8.72587 4.41988C8.72587 4.28354 8.83659 4.17282 8.97293 4.17282H9.36872ZM8.72531 5.31035C8.72531 5.44669 8.61459 5.55741 8.47825 5.55741C8.34187 5.55741 8.23119 5.44669 8.23119 5.31035V4.9146C8.23119 4.77822 8.34187 4.66754 8.47825 4.66754C8.61459 4.66754 8.72531 4.77822 8.72531 4.9146V5.31035ZM7.58778 4.66694C7.4514 4.66694 7.34072 4.55622 7.34072 4.41988C7.34072 4.28354 7.4514 4.17282 7.58778 4.17282H7.98353C8.11991 4.17282 8.23059 4.28354 8.23059 4.41988C8.23059 4.55622 8.11991 4.66694 7.98353 4.66694H7.58778ZM4.72885 5.09922C4.72885 4.96284 4.83953 4.85216 4.97591 4.85216C5.11225 4.85216 5.22297 4.96284 5.22297 5.09922V5.49497C5.22297 5.63131 5.11225 5.74203 4.97591 5.74203C4.83953 5.74203 4.72885 5.63131 4.72885 5.49497V5.09922ZM5.86638 5.74263C6.00272 5.74263 6.11344 5.85331 6.11344 5.98969C6.11344 6.12603 6.00272 6.23675 5.86638 6.23675H5.47059C5.33425 6.23675 5.22353 6.12603 5.22353 5.98969C5.22353 5.85331 5.33425 5.74263 5.47059 5.74263H5.86638ZM5.22297 6.88016C5.22297 7.0165 5.11225 7.12722 4.97591 7.12722C4.83953 7.12722 4.72885 7.0165 4.72885 6.88016V6.48437C4.72885 6.34803 4.83953 6.23731 4.97591 6.23731C5.11225 6.23731 5.22297 6.34803 5.22297 6.48437V6.88016ZM4.08544 6.23675C3.94906 6.23675 3.83838 6.12603 3.83838 5.98969C3.83838 5.85331 3.94906 5.74263 4.08544 5.74263H4.48119C4.61757 5.74263 4.72825 5.85331 4.72825 5.98969C4.72825 6.12603 4.61757 6.23675 4.48119 6.23675H4.08544ZM16.4903 6.20082C16.4903 6.06444 16.601 5.95376 16.7374 5.95376C16.8737 5.95376 16.9844 6.06444 16.9844 6.20082V6.59657C16.9844 6.73295 16.8737 6.84363 16.7374 6.84363C16.601 6.84363 16.4903 6.73295 16.4903 6.59657V6.20082ZM17.6278 6.84423C17.7642 6.84423 17.8749 6.95491 17.8749 7.09129C17.8749 7.22763 17.7642 7.33835 17.6278 7.33835H17.232C17.0957 7.33835 16.985 7.22763 16.985 7.09129C16.985 6.95491 17.0957 6.84423 17.232 6.84423H17.6278ZM16.9844 7.98176C16.9844 8.1181 16.8737 8.22882 16.7374 8.22882C16.601 8.22882 16.4903 8.1181 16.4903 7.98176V7.58597C16.4903 7.44963 16.601 7.33891 16.7374 7.33891C16.8737 7.33891 16.9844 7.44963 16.9844 7.58597V7.98176ZM15.8469 7.33835C15.7105 7.33835 15.5998 7.22763 15.5998 7.09129C15.5998 6.95491 15.7105 6.84423 15.8469 6.84423H16.2426C16.379 6.84423 16.4897 6.95491 16.4897 7.09129C16.4897 7.22763 16.379 7.33835 16.2426 7.33835H15.8469ZM18.2712 9.7627C18.2712 9.62632 18.3819 9.51564 18.5183 9.51564C18.6546 9.51564 18.7654 9.62632 18.7654 9.7627V10.1585C18.7654 10.2948 18.6546 10.4055 18.5183 10.4055C18.3819 10.4055 18.2712 10.2948 18.2712 10.1585V9.7627ZM19.4088 10.4061C19.5451 10.4061 19.6558 10.5168 19.6558 10.6532C19.6558 10.7895 19.5451 10.9002 19.4088 10.9002H19.013C18.8766 10.9002 18.7659 10.7895 18.7659 10.6532C18.7659 10.5168 18.8766 10.4061 19.013 10.4061H19.4088ZM18.7654 11.5436C18.7654 11.68 18.6546 11.7907 18.5183 11.7907C18.3819 11.7907 18.2712 11.68 18.2712 11.5436V11.1479C18.2712 11.0115 18.3819 10.9008 18.5183 10.9008C18.6546 10.9008 18.7654 11.0115 18.7654 11.1479V11.5436ZM17.6278 10.9002C17.4915 10.9002 17.3808 10.7895 17.3808 10.6532C17.3808 10.5168 17.4915 10.4061 17.6278 10.4061H18.0236C18.1599 10.4061 18.2706 10.5168 18.2706 10.6532C18.2706 10.7895 18.1599 10.9002 18.0236 10.9002H17.6278ZM12.0435 4.7647C13.3525 4.7647 14.4153 5.82787 14.4153 7.13742C14.4153 8.44701 13.3525 9.51014 12.0435 9.51014C10.7345 9.51014 9.67175 8.44701 9.67175 7.13742C9.67175 5.82787 10.7345 4.7647 12.0435 4.7647ZM12.0435 5.25882C11.0072 5.25882 10.1659 6.10062 10.1659 7.13742C10.1659 8.17422 11.0072 9.01602 12.0435 9.01602C13.0799 9.01602 13.9212 8.17422 13.9212 7.13742C13.9212 6.10062 13.0799 5.25882 12.0435 5.25882ZM4.63024 18.6941C4.4939 18.6941 4.38318 18.5834 4.38318 18.447C4.38318 18.3107 4.4939 18.1999 4.63024 18.1999H19.4568C19.5932 18.1999 19.7039 18.3107 19.7039 18.447C19.7039 18.5834 19.5932 18.6941 19.4568 18.6941H4.63024ZM11.0776 19.7059C10.9413 19.7059 10.8306 19.5951 10.8306 19.4588C10.8306 19.3224 10.9413 19.2117 11.0776 19.2117H18.2769C18.4133 19.2117 18.5239 19.3224 18.5239 19.4588C18.5239 19.5951 18.4133 19.7059 18.2769 19.7059H11.0776ZM5.66697 20.7176C5.53063 20.7176 5.41991 20.6069 5.41991 20.4706C5.41991 20.3342 5.53063 20.2235 5.66697 20.2235H12.8662C13.0026 20.2235 13.1133 20.3342 13.1133 20.4706C13.1133 20.6069 13.0026 20.7176 12.8662 20.7176H5.66697Z" fill="white"/>
</g>
<defs>
<clipPath id="clip0_3869_5383">
<rect width="18" height="18" fill="white" transform="translate(3 3)"/>
</clipPath>
</defs>
</svg>
